# xmcd CD database file
#
# Track frame offsets:
#	150
#	12459
#	28598
#	41523
#	54081
#	65891
#	77746
#	94131
#	108901
#	122566
#	134912
#	146590
#	163557
#	176390
#
# Disc length: 2501 seconds
#
# Revision: 0
# Processed by: cddbd v1.5.2PL0 Copyright (c) Steve Scherf et al.
# Submitted via: CDex 1.51
#
DISCID=bc09c30e
DTITLE=Pathfinder - East
DYEAR=2006
DGENRE=Jazz
TTITLE0=Pathfinder
TTITLE1=Paddle Steamer
TTITLE2=Cafe Oasis
TTITLE3=Calm Beach
TTITLE4=Le Petit Pain
TTITLE5=Reflections of the Sun
TTITLE6=The Milky Way
TTITLE7=Cliffhanger
TTITLE8=Spanga Station
TTITLE9=Poco Loco
TTITLE10=Au Revoir
TTITLE11=Sweet Talkin´
TTITLE12=Guitar Stumble
TTITLE13=Snow Crystals
EXTD=YEAR: 2006
EXTT0=
EXTT1=
EXTT2=
EXTT3=
EXTT4=
EXTT5=
EXTT6=
EXTT7=
EXTT8=
EXTT9=
EXTT10=
EXTT11=
EXTT12=
EXTT13=
PLAYORDER=
